# xmcd
#
# Track frame offsets: 
#        150
#        19789
#        37277
#        77955
#        102847
#        118468
#        136941
#        155149
#        176351
#        199317
#        216457
#        233939
#        262207
#        281385
#        300196
#        316741
#        333019
#        342315
#
# Disc length: 4814 seconds
#
# Revision: 0
# Processed by: cddbd v1.4PL0 Copyright (c) Steve Scherf et al.
# Submitted via: ExactAudioCopy v0.90b4
#
DISCID=0c12cc12
DTITLE=Various Artist - Blues For Love
DYEAR=2000
DGENRE=Blues
TTITLE0=Grand Funk Railroad-It's A Man's World
TTITLE1=Chris Isaak-Blue Spanish Sky
TTITLE2=Stevie Ray Vaughan-Tin Pan Allau
TTITLE3=Dire Straits-You And Your Frend
TTITLE4=Chris Rea-Sing A Song Of Love Me
TTITLE5=Garry Moore-Still Got The Blues
TTITLE6=Robert Cray-Move A Mountain
TTITLE7=Santana-Flor D'Luna
TTITLE8=Kingdom Come-What Love Can Be
TTITLE9=Vaya Con Dios-Forever Blue
TTITLE10=Oscar Benton-Bensonhurst Blues
TTITLE11=Belle Epoque-Sorry
TTITLE12=ZZ Top-Blue Jean Blues
TTITLE13=Tony Joe White-Cold Fingers
TTITLE14=Los Lobos-Someday
TTITLE15=Eric Clapton-Wonderful Tonight (Slowhand)
TTITLE16=Little Blue-Noonwine
TTITLE17=Joe Cocker-You Can Leave Your Hat On
EXTD=
EXTT0=
EXTT1=
EXTT2=
EXTT3=
EXTT4=
EXTT5=
EXTT6=
EXTT7=
EXTT8=
EXTT9=
EXTT10=
EXTT11=
EXTT12=
EXTT13=
EXTT14=
EXTT15=
EXTT16=
EXTT17=
PLAYORDER=
